# This file uses meters as units for non-parametric coordinates.

mtllib FlyttbarVägg.mtl
g default
v -374.210521 20.738577 250.000000
v -274.210521 20.738577 250.000000
v -374.210521 320.738588 250.000000
v -274.210521 320.738588 250.000000
v -374.210521 320.738588 -250.000000
v -274.210521 320.738588 -250.000000
v -374.210521 20.738577 -250.000000
v -274.210521 20.738577 -250.000000
vt 0.827318 0.044099
vt 0.967038 0.044099
vt 0.967038 0.463259
vt 0.827318 0.463259
vt 0.965119 0.950635
vt 0.825399 0.950635
vt 0.825399 0.531475
vt 0.965119 0.531475
vt 0.003923 0.005706
vt 0.702522 0.005706
vt 0.702522 0.424866
vt 0.003923 0.424866
vt 0.703995 0.851504
vt 0.703995 0.991224
vt 0.005395 0.991224
vt 0.005395 0.851504
vt 0.004209 0.428460
vt 0.702809 0.428460
vt 0.702809 0.847620
vt 0.004209 0.847620
vn 0.000000 0.000000 1.000000
vn 0.000000 0.000000 1.000000
vn 0.000000 0.000000 1.000000
vn 0.000000 0.000000 1.000000
vn 0.000000 1.000000 0.000000
vn 0.000000 1.000000 0.000000
vn 0.000000 1.000000 0.000000
vn 0.000000 1.000000 0.000000
vn 0.000000 0.000000 -1.000000
vn 0.000000 0.000000 -1.000000
vn 0.000000 0.000000 -1.000000
vn 0.000000 0.000000 -1.000000
vn 1.000000 0.000000 0.000000
vn 1.000000 0.000000 0.000000
vn 1.000000 0.000000 0.000000
vn 1.000000 0.000000 0.000000
vn -1.000000 0.000000 0.000000
vn -1.000000 0.000000 0.000000
vn -1.000000 0.000000 0.000000
vn -1.000000 0.000000 0.000000
s off
g pCube1
usemtl initialShadingGroup
f 1/1/1 2/2/2 4/3/3 3/4/4
f 3/13/5 4/14/6 6/15/7 5/16/8
f 5/5/9 6/6/10 8/7/11 7/8/12
f 2/9/13 8/10/14 6/11/15 4/12/16
f 7/17/17 1/18/18 3/19/19 5/20/20
